<svg width="185" height="37" viewBox="0 0 185 37" fill="none" xmlns="http://www.w3.org/2000/svg">
<path d="M31.8779 36H26.2859C25.9019 36 25.5899 35.896 25.3499 35.688C25.1099 35.48 24.9179 35.248 24.7739 34.992L16.1819 21.144C16.1179 21.336 16.0459 21.52 15.9659 21.696C15.9019 21.872 15.8219 22.04 15.7259 22.2L7.42194 34.992C7.24594 35.248 7.04594 35.48 6.82194 35.688C6.61394 35.896 6.33394 36 5.98194 36H0.749939L12.4139 18.24L1.22994 1.44H6.79794C7.19794 1.44 7.48594 1.504 7.66194 1.632C7.85394 1.744 8.02194 1.92 8.16594 2.16L16.5659 15.36C16.6459 15.168 16.7259 14.976 16.8059 14.784C16.8859 14.592 16.9899 14.392 17.1179 14.184L24.9419 2.256C25.1019 1.984 25.2779 1.784 25.4699 1.656C25.6619 1.512 25.8939 1.44 26.1659 1.44H31.5179L20.2379 18L31.8779 36ZM37.9368 14.424C38.9448 13.432 40.0488 12.64 41.2488 12.048C42.4488 11.44 43.8488 11.136 45.4488 11.136C46.7928 11.136 47.9688 11.36 48.9768 11.808C50.0008 12.256 50.8568 12.888 51.5448 13.704C52.2488 14.52 52.7768 15.504 53.1288 16.656C53.4808 17.792 53.6568 19.048 53.6568 20.424V36H48.5208V20.424C48.5208 18.776 48.1368 17.496 47.3688 16.584C46.6168 15.672 45.4648 15.216 43.9128 15.216C42.7608 15.216 41.6888 15.48 40.6968 16.008C39.7208 16.536 38.8008 17.256 37.9368 18.168V36H32.7768V0.48H37.9368V14.424ZM70.3631 25.296C68.5231 25.36 66.9711 25.512 65.7071 25.752C64.4431 25.976 63.4191 26.272 62.6351 26.64C61.8511 26.992 61.2831 27.416 60.9311 27.912C60.5951 28.408 60.4271 28.952 60.4271 29.544C60.4271 30.12 60.5151 30.616 60.6911 31.032C60.8831 31.432 61.1391 31.768 61.4591 32.04C61.7951 32.296 62.1791 32.488 62.6111 32.616C63.0591 32.728 63.5471 32.784 64.0751 32.784C65.4191 32.784 66.5711 32.536 67.5311 32.04C68.5071 31.528 69.4511 30.792 70.3631 29.832V25.296ZM56.6831 14.928C59.4511 12.352 62.7471 11.064 66.5711 11.064C67.9791 11.064 69.2271 11.296 70.3151 11.76C71.4191 12.208 72.3391 12.848 73.0751 13.68C73.8271 14.512 74.3951 15.504 74.7791 16.656C75.1791 17.792 75.3791 19.056 75.3791 20.448V36H73.0751C72.5791 36 72.2031 35.928 71.9471 35.784C71.6911 35.624 71.4751 35.312 71.2991 34.848L70.7951 32.856C70.1711 33.416 69.5551 33.92 68.9471 34.368C68.3391 34.8 67.7071 35.168 67.0511 35.472C66.4111 35.776 65.7151 36 64.9631 36.144C64.2271 36.304 63.4111 36.384 62.5151 36.384C61.5231 36.384 60.5951 36.248 59.7311 35.976C58.8831 35.704 58.1471 35.296 57.5231 34.752C56.8991 34.192 56.4031 33.504 56.0351 32.688C55.6831 31.872 55.5071 30.912 55.5071 29.808C55.5071 28.864 55.7551 27.944 56.2511 27.048C56.7631 26.152 57.5951 25.352 58.7471 24.648C59.9151 23.928 61.4431 23.336 63.3311 22.872C65.2351 22.408 67.5791 22.144 70.3631 22.08V20.448C70.3631 18.688 69.9871 17.376 69.2351 16.512C68.4831 15.648 67.3791 15.216 65.9231 15.216C64.9311 15.216 64.0991 15.344 63.4271 15.6C62.7551 15.84 62.1711 16.104 61.6751 16.392C61.1791 16.68 60.7391 16.952 60.3551 17.208C59.9711 17.448 59.5631 17.568 59.1311 17.568C58.7791 17.568 58.4751 17.48 58.2191 17.304C57.9791 17.112 57.7791 16.88 57.6191 16.608L56.6831 14.928ZM84.2797 0.48V36H79.1197V0.48H84.2797ZM104.305 21C104.305 20.136 104.177 19.336 103.921 18.6C103.681 17.848 103.321 17.2 102.841 16.656C102.361 16.096 101.761 15.664 101.041 15.36C100.337 15.04 99.5207 14.88 98.5927 14.88C96.7207 14.88 95.2487 15.416 94.1767 16.488C93.1047 17.56 92.4247 19.064 92.1367 21H104.305ZM91.9927 24.168C92.0567 25.56 92.2727 26.768 92.6407 27.792C93.0087 28.8 93.4967 29.64 94.1047 30.312C94.7287 30.984 95.4647 31.488 96.3127 31.824C97.1767 32.144 98.1367 32.304 99.1927 32.304C100.201 32.304 101.073 32.192 101.809 31.968C102.545 31.728 103.185 31.472 103.729 31.2C104.273 30.912 104.737 30.656 105.121 30.432C105.505 30.192 105.857 30.072 106.177 30.072C106.593 30.072 106.913 30.232 107.137 30.552L108.601 32.448C107.993 33.168 107.305 33.776 106.537 34.272C105.769 34.768 104.953 35.176 104.089 35.496C103.225 35.8 102.337 36.016 101.425 36.144C100.513 36.288 99.6247 36.36 98.7607 36.36C97.0647 36.36 95.4887 36.08 94.0327 35.52C92.5927 34.944 91.3367 34.104 90.2647 33C89.2087 31.896 88.3767 30.528 87.7687 28.896C87.1767 27.264 86.8807 25.384 86.8807 23.256C86.8807 21.56 87.1447 19.976 87.6727 18.504C88.2167 17.032 88.9847 15.752 89.9767 14.664C90.9847 13.576 92.2007 12.72 93.6247 12.096C95.0647 11.456 96.6887 11.136 98.4967 11.136C100.001 11.136 101.393 11.384 102.673 11.88C103.953 12.36 105.057 13.072 105.985 14.016C106.913 14.96 107.633 16.12 108.145 17.496C108.673 18.856 108.937 20.408 108.937 22.152C108.937 22.952 108.849 23.488 108.673 23.76C108.497 24.032 108.177 24.168 107.713 24.168H91.9927Z" fill="#5168E0"/>
<path d="M158.63 1.44V36H153.686V12.312C153.686 11.928 153.694 11.512 153.71 11.064C153.742 10.6 153.782 10.136 153.83 9.672L142.718 30.192C142.286 31.04 141.622 31.464 140.726 31.464H139.934C139.022 31.464 138.358 31.04 137.942 30.192L126.662 9.624C126.71 10.088 126.742 10.552 126.758 11.016C126.79 11.48 126.806 11.912 126.806 12.312V36H121.862V1.44H126.062C126.558 1.44 126.942 1.488 127.214 1.584C127.486 1.664 127.734 1.928 127.958 2.376L139.046 22.464C139.286 22.928 139.51 23.408 139.718 23.904C139.942 24.384 140.142 24.88 140.318 25.392C140.51 24.88 140.71 24.376 140.918 23.88C141.142 23.368 141.374 22.88 141.614 22.416L152.534 2.376C152.758 1.928 153.006 1.664 153.278 1.584C153.55 1.488 153.934 1.44 154.43 1.44H158.63ZM182.487 7.344C182.311 7.632 182.127 7.848 181.935 7.992C181.743 8.12 181.503 8.184 181.215 8.184C180.911 8.184 180.567 8.056 180.183 7.8C179.815 7.544 179.351 7.264 178.791 6.96C178.247 6.64 177.599 6.352 176.847 6.096C176.095 5.824 175.199 5.688 174.159 5.688C173.199 5.688 172.351 5.808 171.615 6.048C170.895 6.288 170.287 6.624 169.791 7.056C169.295 7.488 168.919 8 168.663 8.592C168.423 9.168 168.303 9.8 168.303 10.488C168.303 11.368 168.535 12.104 168.999 12.696C169.463 13.272 170.071 13.768 170.823 14.184C171.591 14.6 172.463 14.968 173.439 15.288C174.415 15.592 175.407 15.92 176.415 16.272C177.439 16.624 178.439 17.024 179.415 17.472C180.391 17.92 181.255 18.488 182.007 19.176C182.775 19.864 183.391 20.704 183.855 21.696C184.319 22.688 184.551 23.896 184.551 25.32C184.551 26.856 184.287 28.296 183.759 29.64C183.231 30.984 182.463 32.16 181.455 33.168C180.463 34.16 179.231 34.944 177.759 35.52C176.303 36.096 174.639 36.384 172.767 36.384C171.663 36.384 170.583 36.272 169.527 36.048C168.487 35.84 167.487 35.544 166.527 35.16C165.583 34.76 164.695 34.28 163.863 33.72C163.031 33.16 162.287 32.536 161.631 31.848L163.263 29.16C163.407 28.936 163.591 28.76 163.815 28.632C164.039 28.504 164.287 28.44 164.559 28.44C164.927 28.44 165.335 28.616 165.783 28.968C166.231 29.304 166.767 29.68 167.391 30.096C168.031 30.496 168.799 30.872 169.695 31.224C170.591 31.56 171.663 31.728 172.911 31.728C174.943 31.728 176.511 31.232 177.615 30.24C178.735 29.248 179.295 27.88 179.295 26.136C179.295 25.16 179.063 24.368 178.599 23.76C178.135 23.136 177.519 22.616 176.751 22.2C175.999 21.784 175.135 21.432 174.159 21.144C173.183 20.856 172.191 20.552 171.183 20.232C170.175 19.896 169.183 19.512 168.207 19.08C167.231 18.632 166.359 18.056 165.591 17.352C164.839 16.632 164.231 15.752 163.767 14.712C163.303 13.656 163.071 12.344 163.071 10.776C163.071 9.528 163.311 8.32 163.791 7.152C164.287 5.984 164.999 4.952 165.927 4.056C166.871 3.144 168.031 2.416 169.407 1.872C170.783 1.328 172.351 1.056 174.111 1.056C176.095 1.056 177.911 1.368 179.559 1.992C181.223 2.616 182.655 3.504 183.855 4.656L182.487 7.344Z" fill="#283959"/>
</svg>
